# xmcd CD database file
#
# Track frame offsets:
#	150
#	19047
#	38832
#	57849
#	77442
#	93939
#	113172
#	140349
#	162126
#	186855
#	207264
#	225705
#	246978
#
# Disc length: 3485 seconds
#
# Revision: 0
# Processed by: cddbd v1.5.1PL2 Copyright (c) Steve Scherf et al.
# Submitted via: CDex 1.51
#
DISCID=a00d9b0d
DTITLE=Robert Tardik - Without Words
DYEAR=2006
DGENRE=Jazz
TTITLE0=Summer Time
TTITLE1=Smoothy
TTITLE2=Salsa Nights
TTITLE3=That's a Strut
TTITLE4=Fields of Gold
TTITLE5=You Know What I Mean
TTITLE6=A World Apart
TTITLE7=Take One
TTITLE8=A Beautiful Sad Song
TTITLE9=Get Up
TTITLE10=La Isla Bonita
TTITLE11=Manha De Carnaval
TTITLE12=A New Life
EXTD=YEAR: 2006
EXTT0=
EXTT1=
EXTT2=
EXTT3=
EXTT4=
EXTT5=
EXTT6=
EXTT7=
EXTT8=
EXTT9=
EXTT10=
EXTT11=
EXTT12=
PLAYORDER=
